<?xml version="1.0" encoding="utf-8"?>
<!-- Generator: Adobe Illustrator 23.0.5, SVG Export Plug-In . SVG Version: 6.00 Build 0)  -->
<svg version="1.1" id="Layer_1" xmlns="http://www.w3.org/2000/svg" xmlns:xlink="http://www.w3.org/1999/xlink" x="0px" y="0px"
	 viewBox="0 0 1080 1080" style="enable-background:new 0 0 1080 1080;" xml:space="preserve">
<style type="text/css">
	.st0{fill:#FFFFFF;stroke:#231F20;stroke-miterlimit:10;}
	.st1{display:none;}
	.st2{display:inline;}
	.st3{fill:#0F5F6A;}
	.st4{fill:#C9A453;}
	.st5{fill:url(#SVGID_1_);}
	.st6{fill:url(#SVGID_2_);}
	.st7{fill:url(#SVGID_3_);}
	.st8{fill:url(#SVGID_4_);}
	.st9{fill:url(#SVGID_5_);}
	.st10{fill:url(#SVGID_6_);}
	.st11{fill:url(#SVGID_7_);}
	.st12{fill:url(#SVGID_8_);}
	.st13{fill:url(#SVGID_9_);}
	.st14{fill:url(#SVGID_10_);}
	.st15{fill:url(#SVGID_11_);}
	.st16{fill:url(#SVGID_12_);}
	.st17{fill:url(#SVGID_13_);}
	.st18{fill:#FFFFFF;}
	.st19{fill:url(#SVGID_14_);}
</style>
<rect class="st0" width="1080" height="1080"/>
<g class="st1">
	
		<image style="display:inline;overflow:visible;opacity:0.75;" width="3355" height="692" xlink:href="11EEFC1E.png"  transform="matrix(0.24 0 0 0.24 139.44 693.12)">
	</image>
	<g class="st2">
		<g>
			<g>
				<path class="st3" d="M155.1,815v-97h18.3v97H155.1z M164.3,815v-17.6h23.3c6,0,10.7-1.5,13.9-4.4c3.3-2.9,4.9-7,4.9-12.2v-28.6
					c0-5.3-1.6-9.4-4.9-12.3c-3.3-2.9-7.9-4.3-13.9-4.3h-23.3V718h22.9c12.2,0,21.6,3,28.3,9.1c6.6,6.1,10,14.6,10,25.7v27.5
					c0,6.9-1.4,13-4.3,18.2c-2.8,5.2-7.1,9.3-12.8,12.2c-5.7,2.9-12.8,4.4-21.3,4.4H164.3z"/>
				<path class="st3" d="M262.4,718v97h-18.9v-97H262.4z"/>
				<path class="st3" d="M317.8,760.8h33.6v19c0,7.3-1.5,13.7-4.4,19.1c-2.9,5.4-7,9.7-12.3,12.7c-5.3,3-11.5,4.5-18.6,4.5
					c-7.2,0-13.4-1.4-18.8-4.2c-5.4-2.8-9.5-6.8-12.5-11.9c-3-5.1-4.4-11.1-4.4-18v-28.6c0-7.3,1.5-13.7,4.4-19.1
					c2.9-5.4,7-9.6,12.3-12.6c5.3-3,11.5-4.5,18.6-4.5c5.9,0,11.2,1.2,16,3.6c4.8,2.4,8.9,5.8,12.2,10.1c3.3,4.3,5.5,9.4,6.7,15.1
					h-19.8c-1-3.2-2.9-5.6-5.8-7.3c-2.9-1.7-6-2.6-9.3-2.6c-4.9,0-8.9,1.6-11.9,4.7c-3,3.2-4.5,7.3-4.5,12.5v28.6
					c0,4.6,1.5,8.3,4.6,11c3.1,2.8,7.1,4.2,12.1,4.2c4.9,0,8.9-1.5,11.9-4.5c3-3,4.5-7.2,4.5-12.6v-1.6h-14.7V760.8z"/>
				<path class="st3" d="M388.4,718v97h-18.9v-97H388.4z"/>
				<path class="st3" d="M395.1,735.6V718h71.1v17.6H395.1z M421.5,815V726h18.3V815H421.5z"/>
				<path class="st3" d="M464.9,815l37.1-97h11.6l37.1,97H531l-23.2-66.3L484.6,815H464.9z M482.7,799.5v-17.6h51v17.6H482.7z"/>
				<path class="st3" d="M562.7,815v-97H581v97H562.7z M570.8,815v-17.6h56.8V815H570.8z"/>
				<path class="st4" d="M677.7,815v-97H696v97H677.7z M686.2,775.7v-17.6h56.5v17.6H686.2z M730.8,815v-97h18.3v97H730.8z"/>
				<path class="st4" d="M804.5,816c-11.3,0-20-3.1-26.1-9.4c-6.2-6.3-9.2-15.2-9.2-26.7V718h18.3v62.4c0,5.6,1.5,9.9,4.5,12.9
					c3,3.1,7.2,4.6,12.6,4.6c5.5,0,9.7-1.5,12.7-4.6c3-3.1,4.5-7.4,4.5-12.9V718H840v61.9c0,11.5-3.1,20.4-9.3,26.7
					C824.5,812.9,815.8,816,804.5,816z"/>
				<path class="st4" d="M860,815v-97h18.3v97H860z M868,815v-17.6h31c4.2,0,7.4-1,9.7-3c2.3-2,3.4-4.9,3.4-8.5v-0.2
					c0-3.7-1.1-6.5-3.4-8.6c-2.3-2-5.5-3-9.7-3h-31v-17.6h31c3.8,0,6.7-1,8.8-2.9c2.1-1.9,3.1-4.6,3.1-8.1c0-3.2-1-5.6-3.1-7.3
					c-2.1-1.7-5-2.6-8.8-2.6h-31V718h31.6c9.4,0,16.7,2.3,21.9,6.9c5.2,4.6,7.8,11.1,7.8,19.4c0,5.6-1.7,10.3-5,14
					c-3.3,3.7-8,6-14,7c6.4,0.9,11.4,3.3,15,7.4c3.5,4,5.3,9.3,5.3,15.7v0.2c0,8.4-2.6,14.9-7.8,19.5c-5.2,4.6-12.5,6.9-22,6.9H868z
					"/>
			</g>
		</g>
	</g>
</g>
<g class="st1">
	<g class="st2">
		
			<image style="overflow:visible;opacity:0.75;" width="796" height="1203" xlink:href="11EEFC22.png"  transform="matrix(0.24 0 0 0.24 237.532 464.3852)">
		</image>
		<g>
			<linearGradient id="SVGID_1_" gradientUnits="userSpaceOnUse" x1="331.9268" y1="565.4131" x2="333.1145" y2="731.3544">
				<stop  offset="0" style="stop-color:#0D5B67"/>
				<stop  offset="0.3194" style="stop-color:#0C5564"/>
				<stop  offset="0.5168" style="stop-color:#0B485B"/>
				<stop  offset="0.7067" style="stop-color:#0B455D"/>
				<stop  offset="0.7164" style="stop-color:#0A435B"/>
				<stop  offset="0.768" style="stop-color:#073C54"/>
				<stop  offset="0.9115" style="stop-color:#063A52"/>
			</linearGradient>
			<path class="st5" d="M421.5,469.5c-13.1,8.7-26.1,17.4-39.2,26c-0.9,0.6-1.9,1.3-2.5,2.2c-0.8,1.3-0.9,2.9-0.9,4.5
				c0,21-0.1,42-0.1,63.1c0,20.6,1.8,42.1-0.1,62.6c-1.1,12.1-4.8,24.7-10,35.6c-19.7,40.9-64.3,48.1-105.4,39.8
				c-5.4-1.1-10.8-2.4-16.1-3.9c0,0-21.3,0.5,27.8,32.9c49.1,32.4,98.2-3,98.2-3c32.9-23.7,48.5-55.6,48-96.7
				C420.7,578.1,420.9,523.8,421.5,469.5z"/>
		</g>
	</g>
	<g class="st2">
		
			<image style="overflow:visible;opacity:0.75;" width="339" height="339" xlink:href="11EEFC25.png"  transform="matrix(0.24 0 0 0.24 356.332 370.3052)">
		</image>
		<g>
			
				<rect x="372.4" y="384.9" transform="matrix(0.7071 -0.7071 0.7071 0.7071 -173.9764 400.1646)" class="st3" width="47.3" height="50.4"/>
		</g>
	</g>
	<g class="st2">
		
			<image style="overflow:visible;opacity:0.75;" width="236" height="1435" xlink:href="11EEFC26.png"  transform="matrix(0.24 0 0 0.24 967.612 322.3052)">
		</image>
		<g>
			<linearGradient id="SVGID_2_" gradientUnits="userSpaceOnUse" x1="995.0709" y1="340.9378" x2="994.8279" y2="648.2944">
				<stop  offset="0" style="stop-color:#BCA154"/>
				<stop  offset="0.1927" style="stop-color:#989256"/>
				<stop  offset="0.3678" style="stop-color:#798962"/>
				<stop  offset="0.5987" style="stop-color:#4A8070"/>
				<stop  offset="0.7961" style="stop-color:#1D787B"/>
			</linearGradient>
			<path class="st6" d="M1017.2,327.3l-44.6,33.8v298.4c0,0,33.8-8.1,44.6-56.7V327.3z"/>
		</g>
	</g>
	<g class="st2">
		
			<image style="overflow:visible;opacity:0.75;" width="399" height="364" xlink:href="11EEFC24.png"  transform="matrix(0.24 0 0 0.24 945.052 672.4652)">
		</image>
		<g>
			<path class="st3" d="M1018.6,705.4l12.8-18.9c0,0-46.2-26-66.5,11.1c0,0-7.8,12.8,2.4,33.4h-17.2v21.6h83.7c0,0,0-22.9,0-23
				c0-0.6-27.8,0.3-29.9,0.2c-7.4-0.2-15.5-2.7-19.1-9.2c-2.3-4.3-3-16.2,1.4-19.8C986.2,701,1004.4,686.2,1018.6,705.4z"/>
		</g>
	</g>
	<g class="st2">
		
			<image style="overflow:visible;opacity:0.75;" width="2054" height="1431" xlink:href="11EEFC23.png"  transform="matrix(0.24 0 0 0.24 449.212 323.5052)">
		</image>
		<g>
			<linearGradient id="SVGID_3_" gradientUnits="userSpaceOnUse" x1="481.1376" y1="489.1086" x2="919.2707" y2="568.4465">
				<stop  offset="0" style="stop-color:#0C747F"/>
				<stop  offset="0.1927" style="stop-color:#0B5765"/>
				<stop  offset="0.3678" style="stop-color:#0C606B"/>
				<stop  offset="0.5987" style="stop-color:#12747F"/>
				<stop  offset="0.6293" style="stop-color:#1D7F87"/>
				<stop  offset="0.6734" style="stop-color:#23868C"/>
				<stop  offset="0.7961" style="stop-color:#25888D"/>
			</linearGradient>
			<path class="st7" d="M935.1,470.8v189h-91.3c0,0-28.9-8.1-35.6-29.7l-8.1,29.7H521.3c0,0-69.5-2.7-66.8-94.5s0-203.4,0-203.4
				l44.2-33.4v232.4c0,0-2,57.2,50.6,54.2h239c0,0-27.8-165.1-141.8-71.4l11.1-58.2c0,0,124-53.7,165.6,82
				c3.2,10.6,5.3,21.1,11,30.8c12.4,21,37.9,14.8,58.3,14.8V494.2L935.1,470.8z"/>
		</g>
	</g>
	<g class="st2">
		
			<image style="overflow:visible;opacity:0.75;" width="339" height="339" xlink:href="11EEFC2D.png"  transform="matrix(0.24 0 0 0.24 860.812 358.3052)">
		</image>
		<g>
			<linearGradient id="SVGID_4_" gradientUnits="userSpaceOnUse" x1="866.0159" y1="397.9529" x2="935.1225" y2="397.9529">
				<stop  offset="2.886407e-02" style="stop-color:#9E813F"/>
				<stop  offset="0.2225" style="stop-color:#B08E46"/>
				<stop  offset="0.4348" style="stop-color:#BE9E53"/>
				<stop  offset="0.6583" style="stop-color:#D1AC5B"/>
				<stop  offset="0.6748" style="stop-color:#D2AD5A"/>
				<stop  offset="0.8408" style="stop-color:#D3AF59"/>
			</linearGradient>
			<polygon class="st8" points="935.1,399 901.7,432.5 866,396.9 899.5,363.4 			"/>
		</g>
	</g>
	<g class="st2">
		
			<image style="overflow:visible;opacity:0.75;" width="1043" height="517" xlink:href="11EEFC2E.png"  transform="matrix(0.24 0 0 0.24 554.812 360.4652)">
		</image>
		<g>
			<linearGradient id="SVGID_5_" gradientUnits="userSpaceOnUse" x1="583.972" y1="463.426" x2="748.4556" y2="387.5558">
				<stop  offset="2.886407e-02" style="stop-color:#9E813F"/>
				<stop  offset="0.2225" style="stop-color:#B08E46"/>
				<stop  offset="0.4348" style="stop-color:#BE9E53"/>
				<stop  offset="0.6583" style="stop-color:#D1AC5B"/>
				<stop  offset="0.6748" style="stop-color:#D2AD5A"/>
				<stop  offset="0.8408" style="stop-color:#D3AF59"/>
			</linearGradient>
			<polygon class="st9" points="797.9,365.5 787.3,390.3 559.9,477.4 566,451.1 			"/>
		</g>
	</g>
	<g class="st2">
		
			<image style="overflow:visible;opacity:0.75;" width="339" height="339" xlink:href="11EEFC2C.png"  transform="matrix(0.24 0 0 0.24 689.692 675.8252)">
		</image>
		<g>
			<linearGradient id="SVGID_6_" gradientUnits="userSpaceOnUse" x1="694.7525" y1="715.4891" x2="763.8591" y2="715.4891">
				<stop  offset="2.886407e-02" style="stop-color:#9E813F"/>
				<stop  offset="0.2225" style="stop-color:#B08E46"/>
				<stop  offset="0.4348" style="stop-color:#BE9E53"/>
				<stop  offset="0.6583" style="stop-color:#D1AC5B"/>
				<stop  offset="0.6748" style="stop-color:#D2AD5A"/>
				<stop  offset="0.8408" style="stop-color:#D3AF59"/>
			</linearGradient>
			<polygon class="st10" points="763.9,716.6 730.4,750 694.8,714.4 728.2,680.9 			"/>
		</g>
	</g>
</g>
<g>
	<linearGradient id="SVGID_7_" gradientUnits="userSpaceOnUse" x1="570.2843" y1="660.8933" x2="993.1888" y2="660.8933">
		<stop  offset="8.845520e-02" style="stop-color:#063A52"/>
		<stop  offset="0.232" style="stop-color:#073C54"/>
		<stop  offset="0.2836" style="stop-color:#0A435B"/>
		<stop  offset="0.2933" style="stop-color:#0B455D"/>
		<stop  offset="0.4832" style="stop-color:#0B485B"/>
		<stop  offset="0.6806" style="stop-color:#0C5564"/>
		<stop  offset="1" style="stop-color:#0D5B67"/>
	</linearGradient>
	<path class="st11" d="M990.4,680.5H723.7c1.8-5.2,2.8-10.7,2.8-16.3c0-34.7-34.9-62.8-78.1-62.8c-43.2,0-78.1,28.1-78.1,62.8
		c0,7.7,1.7,15.1,5,21.9H609c3.3-22.1,22.4-39.1,45.5-39.1c21.1,0,38.8,14.1,44.2,33.5c1.2,4,1.8,8.2,1.8,12.5
		c0,7.8-1.9,15.1-5.4,21.4c-1,2.1-2.3,4.1-3.8,6h301.8"/>
	<g>
		<linearGradient id="SVGID_8_" gradientUnits="userSpaceOnUse" x1="55.9714" y1="524.6509" x2="990.5612" y2="524.6509">
			<stop  offset="8.845520e-02" style="stop-color:#063A52"/>
			<stop  offset="0.232" style="stop-color:#073C54"/>
			<stop  offset="0.2836" style="stop-color:#0A435B"/>
			<stop  offset="0.2933" style="stop-color:#0B455D"/>
			<stop  offset="0.4832" style="stop-color:#0B485B"/>
			<stop  offset="0.6806" style="stop-color:#0C5564"/>
			<stop  offset="1" style="stop-color:#0D5B67"/>
		</linearGradient>
		<path class="st12" d="M990.6,493.7c0,3.8-0.1,7.4-0.5,11.1l-41,2.7c-11.8-53.7-58.3-95.4-116.5-103.1c-6.3-0.9-12.9-1.3-19.6-1.3
			c-9.6,0-19.1,1-28.1,2.7c-0.4-1.2-0.7-2.4-1.2-3.7C755,318.9,673,259,576.5,259c-101.4,0-186.4,66.1-210.9,155.5
			c-4.7,16.9-7.2,34.7-7.2,52.9c0,1.6,0,3,0.1,4.6c-12.2-5.4-25.1-9.1-38.5-11.4c-9.6-1.7-19.5-2.6-29.6-2.6
			c-95.5,0-173.1,77.5-173.1,173.1c0,9.4,0,27.2,6.8,48.2c11.8,36.3,38.4,65.3,70.3,85.4c10,6.3,22.1,14.1,33.7,16.2
			c28.6,5.1,315.8-2.9,315.8,0.4c0,0,0,60,0,60c-107,0-214,0-321,0c-19.3-5.1-63.1-19.4-100-60c-39.2-43.2-70.9-100.5-66.7-160.3
			c2.9-40.8,14.7-81.3,38.3-115c49-70,136.3-93.4,217.8-94.8c0-112.3,116.6-203.4,260.2-203.4c126,0,219.8,64.9,243.9,157.8
			c13.1-5.5,27.4-8.4,42.2-8.4C925.3,357.3,990.6,421.1,990.6,493.7z"/>
		<linearGradient id="SVGID_9_" gradientUnits="userSpaceOnUse" x1="911.0919" y1="618.6028" x2="918.1504" y2="618.6028">
			<stop  offset="8.845520e-02" style="stop-color:#063A52"/>
			<stop  offset="0.232" style="stop-color:#073C54"/>
			<stop  offset="0.2836" style="stop-color:#0A435B"/>
			<stop  offset="0.2933" style="stop-color:#0B455D"/>
			<stop  offset="0.4832" style="stop-color:#0B485B"/>
			<stop  offset="0.6806" style="stop-color:#0C5564"/>
			<stop  offset="1" style="stop-color:#0D5B67"/>
		</linearGradient>
		<path class="st13" d="M918.2,620.1c-2.3-1.1-4.6-2.1-7.1-3"/>
		<linearGradient id="SVGID_10_" gradientUnits="userSpaceOnUse" x1="599.785" y1="700.6431" x2="1024.0286" y2="700.6431">
			<stop  offset="8.845520e-02" style="stop-color:#063A52"/>
			<stop  offset="0.232" style="stop-color:#073C54"/>
			<stop  offset="0.2836" style="stop-color:#0A435B"/>
			<stop  offset="0.2933" style="stop-color:#0B455D"/>
			<stop  offset="0.4832" style="stop-color:#0B485B"/>
			<stop  offset="0.6806" style="stop-color:#0C5564"/>
			<stop  offset="1" style="stop-color:#0D5B67"/>
		</linearGradient>
		<path class="st14" d="M918.2,620.1c35.5,16.6,59.8,48.9,59.8,86.2c0,30.2-15.9,57.2-41.1,75.1H697.4
			c-10.7-22.8-32.3-36.9-54.6-33.5c-17.6,2.7-31.6,15.8-38.5,33.5c-4.1,10.8-5.6,23.4-3.7,36.3c1.3,8.6,4.1,16.7,8,23.7
			c11.1,20.8,31.8,33.5,53.1,30.2c16.7-2.4,29.8-14.1,37-30.2h244.5c26.9-13.9,49-34.8,63.3-60c11.2-20,17.5-42.5,17.5-66.4
			c0-51.8-29.6-97.4-74.2-122.9c-3-1.8-6.2-3.5-9.5-5.1c-19.7-9.7-41.9-15.7-65.4-16.9c-14.6-24.5-41.4-40.8-72.2-40.8
			c-37.6,0-69.5,24.6-80.3,58.5l28.5,27.1c10.7-25.1,30.9-41.9,53.9-41.9c5.5,0,10.7,1,15.7,2.8c14.5,5,26.8,16.8,35.2,32.7
			c2.6-0.1,5.4-0.2,8-0.2c8,0,15.8,0.7,23.4,2.1c8.4,1.5,16.4,3.8,24,6.7"/>
		<linearGradient id="SVGID_11_" gradientUnits="userSpaceOnUse" x1="624.4907" y1="808.2098" x2="678.1597" y2="808.2098">
			<stop  offset="8.845520e-02" style="stop-color:#063A52"/>
			<stop  offset="0.232" style="stop-color:#073C54"/>
			<stop  offset="0.2836" style="stop-color:#0A435B"/>
			<stop  offset="0.2933" style="stop-color:#0B455D"/>
			<stop  offset="0.4832" style="stop-color:#0B485B"/>
			<stop  offset="0.6806" style="stop-color:#0C5564"/>
			<stop  offset="1" style="stop-color:#0D5B67"/>
		</linearGradient>
		<path class="st15" d="M678.2,808.3c0,14.7-11.9,26.8-26.8,26.8c-14.8,0-26.9-12-26.9-26.8c0-14.8,12-26.9,26.9-26.9
			C666.2,781.4,678.2,793.4,678.2,808.3z"/>
		<linearGradient id="SVGID_12_" gradientUnits="userSpaceOnUse" x1="911.0919" y1="618.6028" x2="918.1504" y2="618.6028">
			<stop  offset="8.845520e-02" style="stop-color:#063A52"/>
			<stop  offset="0.232" style="stop-color:#073C54"/>
			<stop  offset="0.2836" style="stop-color:#0A435B"/>
			<stop  offset="0.2933" style="stop-color:#0B455D"/>
			<stop  offset="0.4832" style="stop-color:#0B485B"/>
			<stop  offset="0.6806" style="stop-color:#0C5564"/>
			<stop  offset="1" style="stop-color:#0D5B67"/>
		</linearGradient>
		<path class="st16" d="M918.2,620.1c-2.3-1.1-4.6-2.1-7.1-3"/>
		<linearGradient id="SVGID_13_" gradientUnits="userSpaceOnUse" x1="624.4907" y1="808.2098" x2="678.1597" y2="808.2098">
			<stop  offset="8.845520e-02" style="stop-color:#063A52"/>
			<stop  offset="0.232" style="stop-color:#073C54"/>
			<stop  offset="0.2836" style="stop-color:#0A435B"/>
			<stop  offset="0.2933" style="stop-color:#0B455D"/>
			<stop  offset="0.4832" style="stop-color:#0B485B"/>
			<stop  offset="0.6806" style="stop-color:#0C5564"/>
			<stop  offset="1" style="stop-color:#0D5B67"/>
		</linearGradient>
		<path class="st17" d="M678.2,808.3c0,14.7-11.9,26.8-26.8,26.8c-14.8,0-26.9-12-26.9-26.8c0-14.8,12-26.9,26.9-26.9
			C666.2,781.4,678.2,793.4,678.2,808.3z"/>
		<path class="st18" d="M678.2,808.3c0,14.7-11.9,26.8-26.8,26.8c-14.8,0-26.9-12-26.9-26.8c0-14.8,12-26.9,26.9-26.9
			C666.2,781.4,678.2,793.4,678.2,808.3z"/>
		<linearGradient id="SVGID_14_" gradientUnits="userSpaceOnUse" x1="544.0472" y1="811.3743" x2="544.0472" y2="811.3743">
			<stop  offset="8.845520e-02" style="stop-color:#063A52"/>
			<stop  offset="0.232" style="stop-color:#073C54"/>
			<stop  offset="0.2836" style="stop-color:#0A435B"/>
			<stop  offset="0.2933" style="stop-color:#0B455D"/>
			<stop  offset="0.4832" style="stop-color:#0B485B"/>
			<stop  offset="0.6806" style="stop-color:#0C5564"/>
			<stop  offset="1" style="stop-color:#0D5B67"/>
		</linearGradient>
		<line class="st19" x1="544" y1="841.4" x2="544" y2="781.4"/>
	</g>
</g>
</svg>
